<?xml version="1.0" standalone="no"?>
<!DOCTYPE svg PUBLIC "-//W3C//DTD SVG 20010904//EN"
 "http://www.w3.org/TR/2001/REC-SVG-20010904/DTD/svg10.dtd">
<svg version="1.0" xmlns="http://www.w3.org/2000/svg"
 width="544.000000pt" height="562.000000pt" viewBox="0 0 544.000000 562.000000"
 preserveAspectRatio="xMidYMid meet">

<g transform="translate(0.000000,562.000000) scale(0.100000,-0.100000)"
fill="#000000" stroke="none">
<path d="M103 5463 c3 -10 20 -102 39 -205 l33 -188 168 0 c164 0 168 0 177
-22 12 -29 620 -2330 620 -2346 0 -7 -24 -41 -53 -75 -125 -147 -207 -324
-207 -445 0 -207 132 -569 255 -696 l50 -53 580 -7 c319 -3 1035 -11 1590 -16
556 -5 1182 -12 1393 -16 l382 -6 0 235 0 235 -362 6 c-200 3 -1009 8 -1798
11 l-1435 6 -56 58 c-144 150 -152 320 -22 479 20 24 45 48 57 53 11 5 298 54
636 109 338 55 1027 167 1530 250 503 82 1041 170 1195 195 154 25 288 48 298
51 12 4 17 16 17 42 0 20 9 224 20 452 10 228 26 570 35 760 8 190 16 366 18
393 l4 47 -731 -1 c-402 0 -1325 -4 -2051 -8 -726 -4 -1324 -4 -1329 0 -4 4
-44 123 -87 266 -44 142 -93 302 -109 356 l-31 97 -415 0 c-391 0 -415 -1
-411 -17z m2117 -1253 c41 -6 99 -15 128 -22 l52 -11 0 -88 0 -87 -72 25 c-87
30 -217 41 -272 23 -47 -15 -70 -49 -61 -90 9 -40 35 -52 177 -83 222 -49 278
-101 278 -257 0 -77 -21 -142 -58 -183 -79 -87 -317 -108 -519 -46 l-63 20 0
89 0 90 58 -26 c118 -52 262 -69 327 -38 59 28 70 105 20 138 -13 8 -78 29
-145 45 -202 50 -259 100 -268 235 -13 205 139 302 418 266z m984 -122 c15
-62 45 -193 68 -290 23 -98 45 -178 48 -178 3 0 23 73 44 163 21 89 52 219 68
290 l30 127 103 0 c90 0 104 -2 109 -17 3 -10 33 -135 66 -278 33 -143 64
-268 68 -278 5 -12 31 81 77 275 l70 293 104 3 c81 2 102 0 99 -10 -3 -7 -47
-194 -99 -416 l-94 -403 -124 3 -125 3 -22 90 c-12 50 -46 189 -74 310 -35
144 -55 213 -60 200 -4 -11 -38 -152 -75 -313 l-69 -293 -124 3 -125 3 -92
385 c-50 212 -95 397 -98 413 l-7 27 103 0 104 0 27 -112z"/>
<path d="M1795 1170 c-217 -46 -376 -205 -421 -420 -55 -260 121 -534 387
-605 82 -22 202 -19 280 8 227 77 369 271 369 502 0 278 -220 508 -500 521
-41 2 -93 -1 -115 -6z"/>
<path d="M4445 1170 c-233 -50 -404 -239 -430 -475 -14 -126 43 -287 138 -391
273 -299 750 -196 885 190 90 260 -61 559 -330 653 -79 27 -196 38 -263 23z"/>
</g>
</svg>
