<?xml version="1.0" standalone="no"?>
<!DOCTYPE svg PUBLIC "-//W3C//DTD SVG 20010904//EN"
 "http://www.w3.org/TR/2001/REC-SVG-20010904/DTD/svg10.dtd">
<svg version="1.0" xmlns="http://www.w3.org/2000/svg"
 width="809.000000pt" height="260.000000pt" viewBox="0 0 809.000000 260.000000"
 preserveAspectRatio="xMidYMid meet">

<g transform="translate(0.000000,260.000000) scale(0.100000,-0.100000)"
fill="#000000" stroke="none">
<path d="M514 2213 c17 -100 12 -93 70 -93 l53 0 95 -362 96 -363 -23 -30
c-69 -91 -72 -173 -14 -292 l34 -68 165 -6 c91 -3 369 -7 618 -8 l452 -1 0 75
0 75 -554 0 -555 0 -20 27 c-32 40 -36 71 -15 111 10 19 24 37 32 39 7 3 264
47 570 97 l557 92 6 71 c4 38 10 159 14 267 l7 196 -633 -2 -633 -3 -34 108
-33 107 -131 0 -130 0 6 -37z m661 -369 c14 -6 45 -53 45 -69 0 -15 -57 -3
-68 15 -14 22 -42 26 -60 8 -20 -20 -14 -27 41 -43 76 -22 91 -35 91 -80 0
-52 -30 -75 -98 -75 -28 0 -58 6 -67 13 -18 13 -39 50 -39 66 0 20 43 11 66
-14 26 -28 42 -31 69 -11 27 20 12 43 -34 51 -82 14 -118 78 -71 125 20 20 88
28 125 14z m235 -56 c19 -94 24 -95 45 -13 l19 76 35 -3 35 -3 20 -80 19 -80
14 60 c7 33 15 70 18 83 4 16 13 22 34 22 l28 0 -31 -125 -30 -125 -31 0 c-30
0 -32 2 -49 73 -22 85 -31 99 -40 60 -30 -119 -36 -133 -66 -133 -32 0 -33 1
-65 145 -9 39 -18 78 -21 88 -4 13 1 17 24 17 28 0 30 -3 42 -62z"/>
<path d="M2536 1696 c-22 -8 -51 -26 -65 -41 -22 -21 -26 -35 -26 -81 0 -49 4
-59 28 -80 15 -13 66 -35 113 -50 47 -14 94 -34 105 -45 38 -38 15 -96 -49
-120 -40 -15 -101 -3 -152 31 l-45 30 -3 -37 c-4 -44 8 -56 86 -80 94 -30 201
7 236 81 45 96 -3 162 -147 199 -95 25 -120 51 -101 102 9 22 57 45 96 45 18
0 57 -11 86 -25 l52 -24 0 35 c0 31 -4 37 -37 50 -53 23 -131 27 -177 10z"/>
<path d="M4290 1473 c33 -124 61 -232 64 -240 4 -9 17 -13 38 -11 l32 3 40
182 c22 101 42 181 44 178 3 -2 24 -84 47 -182 l42 -178 33 0 34 0 58 230 c31
127 58 233 58 238 0 4 -15 7 -33 7 l-34 0 -39 -175 c-21 -96 -41 -175 -44
-175 -3 0 -21 62 -39 138 -57 235 -47 212 -86 212 -32 0 -34 -2 -44 -52 -55
-258 -67 -308 -72 -308 -3 0 -21 66 -39 148 -51 225 -46 212 -85 212 l-33 0
58 -227z"/>
<path d="M3630 1595 c-10 -12 -10 -21 0 -44 7 -18 9 -43 5 -62 -11 -49 11 -27
30 31 12 37 14 54 5 69 -13 25 -23 26 -40 6z"/>
<path d="M3795 1597 c-47 -22 -70 -54 -70 -97 0 -53 25 -76 107 -101 106 -31
131 -67 82 -116 -22 -22 -32 -25 -73 -21 -27 3 -62 14 -79 26 -39 28 -42 28
-42 -7 0 -23 7 -32 36 -46 113 -53 234 -1 234 103 0 46 -33 75 -116 102 -82
27 -94 35 -94 66 0 51 87 71 148 34 42 -26 42 -25 42 8 0 22 -7 32 -27 41 -42
19 -114 23 -148 8z"/>
<path d="M6254 1591 c-198 -90 -102 -426 106 -372 136 36 182 222 83 332 -53
59 -118 72 -189 40z m130 -52 c38 -30 56 -71 56 -129 0 -88 -50 -150 -120
-150 -69 0 -120 64 -120 150 0 118 105 191 184 129z"/>
<path d="M6943 1599 c-43 -13 -73 -53 -73 -99 0 -48 30 -76 111 -101 35 -11
71 -27 81 -36 43 -38 -1 -103 -70 -103 -20 0 -54 11 -79 25 l-43 26 0 -30 c0
-23 7 -34 28 -45 105 -55 233 -4 236 93 1 56 -30 86 -115 111 -98 29 -121 58
-79 100 27 27 94 27 138 0 l32 -20 0 30 c0 24 -6 33 -27 41 -40 16 -103 20
-140 8z"/>
<path d="M2880 1423 c-81 -221 -78 -205 -44 -201 22 2 30 12 47 56 l20 52 72
0 71 0 18 -55 c16 -50 20 -55 46 -55 l30 0 -26 68 c-14 37 -46 122 -71 190
-43 113 -48 122 -72 122 -25 0 -30 -10 -91 -177z m140 -35 c0 -4 -22 -8 -50
-8 -27 0 -50 2 -50 3 0 4 37 115 46 137 4 9 16 -12 30 -54 13 -39 24 -74 24
-78z"/>
<path d="M3180 1411 l0 -191 25 0 24 0 3 157 3 156 63 -106 c34 -59 64 -107
66 -107 2 0 32 48 67 108 l64 107 3 -157 c2 -150 4 -158 22 -158 19 0 20 7 20
190 l0 190 -29 0 c-26 0 -35 -10 -87 -100 -32 -55 -60 -97 -63 -94 -3 3 -31
47 -62 97 -49 82 -59 92 -87 95 l-32 3 0 -190z"/>
<path d="M4873 1409 l-71 -190 31 3 c27 3 32 9 47 53 l17 50 73 0 73 0 17 -50
c15 -44 20 -50 47 -53 l31 -3 -72 190 c-67 180 -72 191 -97 191 -24 0 -29 -10
-96 -191z m122 51 c10 -30 20 -61 23 -67 3 -9 -10 -13 -47 -13 -28 0 -51 3
-51 7 0 21 45 142 51 136 3 -5 15 -33 24 -63z"/>
<path d="M5180 1410 l0 -190 25 0 c25 0 25 1 25 85 l0 85 45 0 c31 0 51 -6 64
-19 17 -17 61 -119 61 -141 0 -6 13 -10 30 -10 l29 0 -24 65 c-14 36 -25 68
-25 71 0 3 -11 15 -24 28 l-25 22 33 18 c53 28 68 74 41 125 -19 39 -60 51
-166 51 l-89 0 0 -190z m194 127 c26 -19 18 -68 -14 -84 -14 -7 -49 -13 -77
-13 l-53 0 0 55 0 55 63 0 c36 0 71 -6 81 -13z"/>
<path d="M5500 1410 l0 -190 120 0 120 0 0 25 c0 25 0 25 -95 25 l-95 0 0 60
0 59 93 3 c87 3 92 4 95 26 3 21 1 22 -92 22 l-96 0 0 55 0 55 95 0 c95 0 95
0 95 25 l0 25 -120 0 -120 0 0 -190z"/>
<path d="M5800 1410 l0 -190 25 0 c25 0 25 1 25 85 l0 85 95 0 95 0 0 -85 c0
-84 0 -85 25 -85 l25 0 0 190 0 190 -25 0 c-25 0 -25 -1 -25 -80 l0 -80 -95 0
-95 0 0 80 c0 79 0 80 -25 80 l-25 0 0 -190z"/>
<path d="M6541 1463 c1 -197 21 -238 124 -249 58 -6 106 14 139 59 18 25 21
46 25 178 l3 149 -31 0 -31 0 0 -145 c0 -142 -1 -147 -25 -170 -34 -35 -93
-34 -126 1 -23 24 -24 33 -27 170 l-4 144 -24 0 -24 0 1 -137z"/>
<path d="M7190 1410 l0 -190 120 0 120 0 0 25 c0 25 0 25 -95 25 l-95 0 0 60
0 60 90 0 c89 0 90 0 90 25 0 25 -1 25 -90 25 l-90 0 0 55 0 55 95 0 c95 0 95
0 95 25 l0 25 -120 0 -120 0 0 -190z"/>
<path d="M1024 920 c-100 -21 -154 -139 -108 -236 63 -132 265 -110 303 32 32
121 -72 229 -195 204z"/>
<path d="M1843 919 c-98 -20 -154 -125 -117 -217 52 -131 232 -144 295 -21 36
71 14 173 -45 212 -34 23 -95 35 -133 26z"/>
</g>
</svg>
